<?xml version="1.0" encoding="iso-8859-1"?>
<!-- Generator: Adobe Illustrator 19.0.0, SVG Export Plug-In . SVG Version: 6.00 Build 0)  -->
<svg version="1.1" id="Capa_1" xmlns="http://www.w3.org/2000/svg" xmlns:xlink="http://www.w3.org/1999/xlink" x="0px" y="0px"
	 viewBox="0 0 512 512" style="enable-background:new 0 0 512 512;" xml:space="preserve">
<g>
	<g>
		<path d="M137.323,203.947c-3.435-4.779-10.048-5.888-14.891-2.475c-10.859,7.765-23.68,11.861-37.099,11.861
			c-35.285,0-64-28.715-64-64v-10.667c0-5.888-4.779-10.667-10.667-10.667S0,132.779,0,138.667v10.667
			c0,47.061,38.272,85.333,85.333,85.333c17.899,0,35.029-5.461,49.515-15.851C139.627,215.403,140.736,208.747,137.323,203.947z"/>
	</g>
</g>
<g>
	<g>
		<path d="M261.504,200c-4.992-3.051-11.563-1.429-14.656,3.627c-11.691,19.435-32.192,31.04-54.848,31.04
			c-22.229,0-42.539-11.285-54.336-30.165c-3.115-5.013-9.728-6.507-14.677-3.413c-5.013,3.136-6.528,9.707-3.413,14.699
			C135.296,240.96,162.347,256,192,256c30.187,0,57.536-15.467,73.152-41.365C268.181,209.6,266.539,203.051,261.504,200z"/>
	</g>
</g>
<g>
	<g>
		<path d="M389.013,201.109c-4.907-3.072-11.563-1.579-14.677,3.413c-11.797,18.88-32.107,30.144-54.336,30.144
			c-22.656,0-43.2-11.605-54.891-31.083c-3.051-5.035-9.579-6.635-14.656-3.648c-5.035,3.051-6.699,9.6-3.648,14.656
			C262.187,240.128,290.219,256,320,256c29.632,0,56.704-15.019,72.405-40.192C395.541,210.816,394.005,204.224,389.013,201.109z"/>
	</g>
</g>
<g>
	<g>
		<path d="M501.333,128c-5.888,0-10.667,4.779-10.667,10.667v10.667c0,35.285-28.715,64-64,64c-13.376,0-26.197-4.075-37.056-11.797
			c-4.757-3.413-11.435-2.304-14.848,2.517c-3.413,4.8-2.304,11.456,2.517,14.869c14.485,10.304,31.573,15.744,49.387,15.744
			c47.061,0,85.333-38.272,85.333-85.333v-10.667C512,132.779,507.221,128,501.333,128z"/>
	</g>
</g>
<g>
	<g>
		<path d="M128,128c-5.888,0-10.667,4.779-10.667,10.667v70.464c0,5.888,4.779,10.667,10.667,10.667s10.667-4.757,10.667-10.667
			v-70.464C138.667,132.779,133.888,128,128,128z"/>
	</g>
</g>
<g>
	<g>
		<path d="M256,42.667c-5.888,0-10.667,4.779-10.667,10.667v155.797c0,5.888,4.779,10.667,10.667,10.667s10.667-4.757,10.667-10.667
			V53.333C266.667,47.445,261.888,42.667,256,42.667z"/>
	</g>
</g>
<g>
	<g>
		<path d="M384,128c-5.888,0-10.667,4.779-10.667,10.667v70.827c0,5.888,4.779,10.667,10.667,10.667
			c5.888,0,10.667-4.779,10.667-10.667v-70.827C394.667,132.779,389.888,128,384,128z"/>
	</g>
</g>
<g>
	<g>
		<path d="M501.333,128H10.667C4.779,128,0,132.779,0,138.667s4.779,10.667,10.667,10.667h490.667
			c5.888,0,10.667-4.779,10.667-10.667S507.221,128,501.333,128z"/>
	</g>
</g>
<g>
	<g>
		<path d="M509.867,132.267l-64-85.333c-2.005-2.688-5.184-4.267-8.533-4.267H74.667c-3.349,0-6.528,1.579-8.533,4.267l-64,85.333
			c-3.52,4.715-2.581,11.392,2.133,14.933c4.715,3.52,11.392,2.603,14.933-2.133L80,64h352l60.8,81.067
			c2.091,2.795,5.312,4.267,8.533,4.267c2.219,0,4.48-0.704,6.379-2.133C512.427,143.659,513.387,136.981,509.867,132.267z"/>
	</g>
</g>
<g>
	<g>
		<path d="M437.333,213.333c-5.888,0-10.667,4.779-10.667,10.667v224H85.333V224c0-5.888-4.779-10.667-10.667-10.667
			S64,218.112,64,224v234.667c0,5.888,4.779,10.667,10.667,10.667h362.667c5.888,0,10.667-4.779,10.667-10.667V224
			C448,218.112,443.221,213.333,437.333,213.333z"/>
	</g>
</g>
<g>
	<g>
		<path d="M394.667,277.333H288c-5.888,0-10.667,4.779-10.667,10.667v170.667c0,5.888,4.779,10.667,10.667,10.667h106.667
			c5.888,0,10.667-4.779,10.667-10.667V288C405.333,282.112,400.555,277.333,394.667,277.333z M384,448h-85.333V298.667H384V448z"/>
	</g>
</g>
<g>
	<g>
		<path d="M245.333,277.333h-128c-5.888,0-10.667,4.779-10.667,10.667v85.333c0,5.888,4.779,10.667,10.667,10.667h128
			c5.888,0,10.667-4.779,10.667-10.667V288C256,282.112,251.221,277.333,245.333,277.333z M234.667,362.667H128v-64h106.667V362.667
			z"/>
	</g>
</g>
<g>
	<g>
		<path d="M175.445,43.776c-5.269-2.581-11.648-0.491-14.315,4.779l-42.667,85.333c-2.624,5.269-0.512,11.691,4.757,14.315
			c1.557,0.768,3.179,1.131,4.779,1.131c3.904,0,7.659-2.155,9.536-5.888l42.667-85.333
			C182.827,52.843,180.715,46.421,175.445,43.776z"/>
	</g>
</g>
<g>
	<g>
		<path d="M393.557,133.909l-42.667-85.333c-2.645-5.269-9.045-7.381-14.315-4.779c-5.269,2.645-7.403,9.045-4.779,14.315
			l42.667,85.333c1.877,3.733,5.632,5.888,9.536,5.888c1.6,0,3.221-0.363,4.779-1.109
			C394.048,145.579,396.181,139.179,393.557,133.909z"/>
	</g>
</g>
<g>
</g>
<g>
</g>
<g>
</g>
<g>
</g>
<g>
</g>
<g>
</g>
<g>
</g>
<g>
</g>
<g>
</g>
<g>
</g>
<g>
</g>
<g>
</g>
<g>
</g>
<g>
</g>
<g>
</g>
</svg>
