<?xml version="1.0"?>
<svg xmlns="http://www.w3.org/2000/svg" xmlns:xlink="http://www.w3.org/1999/xlink" version="1.1" id="Capa_1" x="0px" y="0px" viewBox="0 0 491.52 491.52" style="enable-background:new 0 0 491.52 491.52;" xml:space="preserve" width="512px" height="512px" class=""><g><circle style="fill:#FFFFFF" cx="245.76" cy="245.76" r="245.76" data-original="#E05B49" class="" data-old_color="#E05B49"/><path style="fill:#2E3C56" d="M316.829,364.393l-22.072-51.243h-99.448l-22.072,51.243h-56.326l102.514-237.266h51.244  l102.514,237.266H316.829z M245.198,197.735l-29.862,68.895h59.393L245.198,197.735z" data-original="#FCD462" class="" data-old_color="#FCD462"/><g>
	<rect x="199.117" y="263.936" style="fill:#222E44" width="91.858" height="5.263" data-original="#3A556A" class="active-path" data-old_color="#3A556A"/>
	<rect x="199.117" y="124.493" style="fill:#222E44" width="91.858" height="5.263" data-original="#3A556A" class="active-path" data-old_color="#3A556A"/>
	<rect x="179.507" y="310.272" style="fill:#222E44" width="131.082" height="5.263" data-original="#3A556A" class="active-path" data-old_color="#3A556A"/>
	<rect x="293.069" y="361.779" style="fill:#222E44" width="93.507" height="5.263" data-original="#3A556A" class="active-path" data-old_color="#3A556A"/>
	<rect x="104.96" y="361.779" style="fill:#222E44" width="93.819" height="5.263" data-original="#3A556A" class="active-path" data-old_color="#3A556A"/>
	
		<rect x="319.286" y="100.705" transform="matrix(-0.918 0.3966 -0.3966 -0.918 714.9069 343.6807)" style="fill:#222E44" width="5.263" height="290.11" data-original="#3A556A" class="active-path" data-old_color="#3A556A"/>
	
		<rect x="23.133" y="243.122" transform="matrix(-0.3965 0.918 -0.918 -0.3965 460.4864 188.8026)" style="fill:#222E44" width="290.109" height="5.263" data-original="#3A556A" class="active-path" data-old_color="#3A556A"/>
	<polygon style="fill:#222E44" points="282.269,277.318 241.375,182.171 236.541,184.248 276.542,277.318  " data-original="#3A556A" class="active-path" data-old_color="#3A556A"/>
	<polygon style="fill:#222E44" points="285.972,299.257 320.656,379.956 325.489,377.878 291.698,299.257  " data-original="#3A556A" class="active-path" data-old_color="#3A556A"/>
	<polygon style="fill:#222E44" points="213.962,277.318 253.963,184.248 249.129,182.171 208.236,277.318  " data-original="#3A556A" class="active-path" data-old_color="#3A556A"/>
	<polygon style="fill:#222E44" points="198.806,299.257 165.015,377.878 169.848,379.956 204.532,299.257  " data-original="#3A556A" class="active-path" data-old_color="#3A556A"/>
</g></g> </svg>
